<svg xmlns="http://www.w3.org/2000/svg" viewBox="0 0 512 512" fill="none">
  <!-- Background Squircle with Border -->
  <rect x="6" y="6" width="500" height="500" rx="120" fill="#0a0e0b" stroke="#d1ff36" stroke-width="12" />
  
  <!-- Letters B and R -->
  <g transform="translate(88.14, 422.4) scale(0.416, -0.416)">
    <!-- Letter B (White) -->
    <path fill="#ffffff" transform="translate(-10, 0)" d="M 298.0 421.0 C 344.0 444.0, 378.0 487.0, 378.0 575.0 L 378.0 582.0 C 378.0 743.0, 331.0 800.0, 160.0 800.0 L 10.0 800.0 L 10.0 0.0 L 160.0 0.0 C 331.0 1.0, 388.0 59.0, 388.0 208.0 L 388.0 249.0 C 388.0 346.0, 349.0 396.0, 298.0 421.0 Z M 228.0 582.0 L 228.0 555.0 C 228.0 497.0, 218.0 487.0, 160.0 487.0 L 160.0 650.0 C 218.0 650.0, 228.0 640.0, 228.0 582.0 Z M 160.0 150.0 L 160.0 337.0 C 218.0 337.0, 238.0 327.0, 238.0 269.0 L 238.0 218.0 C 238.0 160.0, 218.0 150.0, 160.0 150.0 Z" />
    
    <!-- Letter R (Neon Lime-Yellow) -->
    <path fill="#d1ff36" transform="translate(408, 0)" d="M 388.0 71.0 L 388.0 195.0 C 388.0 270.0, 365.0 311.0, 314.0 332.0 C 361.0 366.0, 388.0 423.0, 388.0 511.0 L 388.0 582.0 C 388.0 743.0, 331.0 800.0, 160.0 800.0 L 10.0 800.0 L 10.0 0.0 L 160.0 0.0 L 160.0 293.0 C 218.0 293.0, 238.0 283.0, 238.0 225.0 L 238.0 71.0 C 238.0 41.0, 239.0 12.0, 249.0 0.0 L 399.0 0.0 C 389.0 12.0, 388.0 41.0, 388.0 71.0 Z M 238.0 582.0 L 238.0 511.0 C 238.0 453.0, 218.0 443.0, 160.0 443.0 L 160.0 650.0 C 218.0 650.0, 238.0 640.0, 238.0 582.0 Z" />
  </g>
</svg>
